<?xml version="1.0" encoding="UTF-8" standalone="no"?>
<svg
   version="1.1"
   height="244.54906"
   width="169.01222"
   viewBox="-0.2 -236 169.07508 244.54907"
   id="svg76231"
   sodipodi:docname="4.svg"
   xmlns:inkscape="http://www.inkscape.org/namespaces/inkscape"
   xmlns:sodipodi="http://sodipodi.sourceforge.net/DTD/sodipodi-0.dtd"
   xmlns:xlink="http://www.w3.org/1999/xlink"
   xmlns="http://www.w3.org/2000/svg"
   xmlns:svg="http://www.w3.org/2000/svg">
  <sodipodi:namedview
     id="namedview76233"
     pagecolor="#505050"
     bordercolor="#eeeeee"
     borderopacity="1"
     inkscape:showpageshadow="0"
     inkscape:pageopacity="0"
     inkscape:pagecheckerboard="0"
     inkscape:deskcolor="#505050"
     showgrid="false" />
  <!-- SVG-cards 2.0.1								-->
  <!-- This set of SVG files is a complete cards game with figures, numbers	-->
  <!--	and backs of cards completely designed in SVG.				-->
  <!--										-->
  <!--	Copyright (C) 2005 David Bellot						-->
  <!--										-->
  <!--	This library is free software; you can redistribute it and/or		-->
  <!--	modify it under the terms of the GNU Lesser General Public		-->
  <!--	License as published by the Free Software Foundation; either		-->
  <!--	version 2 of the License, or (at your option) any later version		-->
  <!--										-->
  <!--	This library is distributed in the hope that it will be useful,		-->
  <!--	but WITHOUT ANY WARRANTY; without even the implied warranty of		-->
  <!--	MERCHANTABILITY or FITNESS FOR A PARTICULAR PURPOSE.  See the GNU	-->
  <!--	Lesser General Public License for more details.				-->
  <!--										-->
  <!--	You should have received a copy of the GNU Lesser General Public	-->
  <!--	License along with this library; if not, write to the Free Software	-->
  <!--	Foundation, Inc., 59 Temple Place, Suite 330, Boston, MA 02111-1307  USA-->
  <!--                                                                            -->
  <!--	Contact the author David Bellot at david.bellot@free.fr			-->
  <defs
     id="defs75428">
    <g
       id="n_7">
      <text
         transform="scale(0.56453,1.05741)"
         font-family="'Bitstream Vera Serif'"
         font-weight="bold"
         font-size="43px"
         id="text74796">7</text>
    </g>
    <g
       id="n_8">
      <text
         transform="scale(0.56453,1.05741)"
         font-family="'Bitstream Vera Serif'"
         font-weight="bold"
         font-size="43px"
         id="text74799">8</text>
    </g>
    <g
       id="n_9">
      <text
         transform="scale(0.56453,1.05741)"
         font-family="'Bitstream Vera Serif'"
         font-weight="bold"
         font-size="43px"
         id="text74802">9</text>
    </g>
    <g
       id="base">
      <path
         style="fill:#ffffff;stroke:#000000;stroke-width:2.5"
         d="m 0,0 c 0,3.78 3.09,6.87 6.87,6.87 h 152.845 c 3.77,0 6.86,-3.09 6.86,-6.87 v -228.4 c 0,-3.78 -3.09,-6.87 -6.86,-6.87 H 6.87 c -3.78,0 -6.87,3.09 -6.87,6.87 z"
         id="path74817" />
    </g>
    <g
       id="spade">
      <path
         d="m 3.92,-7.93 c -1.67,0 -2.55,1.78 -3.01,3.56 -0.46,1.78 -0.5,3.56 -0.5,3.56 l -0.85,0.01 c 0,0 -0.16,-7.13 -3.5,-7.13 z"
         id="path74841" />
      <path
         d="M 6.75,-0.8 C 6.74,2.67 1.53,5.19 0,7.93 -1.53,5.18 -6.74,2.66 -6.75,-0.8 c 0,-1.64 1.51,-2.97 3.38,-2.97 1.86,0 3.37,1.33 3.37,2.97 0,-1.64 1.51,-2.97 3.38,-2.97 1.87,0 3.37,1.33 3.37,2.97 z"
         id="path74843" />
    </g>
    <g
       transform="matrix(0.4,0,0,0.4,236.59,667.12)"
       id="lys"
       style="fill:#ffffff;fill-opacity:1;stroke:none;stroke-opacity:1">
      <path
         d="m 355.65,280.19 c 0,0 -3.75,-8.1 -8.1,-12.6 -4.36,-4.51 -9.68,-7.58 -11.04,-6.53"
         transform="translate(-1.35,-0.76)"
         style="fill:#ffffff;fill-opacity:1;fill-rule:evenodd;stroke:none;stroke-width:0.25pt;stroke-linecap:butt;stroke-linejoin:miter;stroke-opacity:1"
         id="lys_1" />
      <path
         d="m 368.97,258.94 c -2.29,0.08 -5.9,1.92 -7.85,3.87 -2.59,2.6 -3.52,7.58 -3.59,9.44 -0.07,1.86 -1.32,-0.84 -2.19,-2.37 -0.86,-1.54 -1.93,-5.4 -2.22,-3.22 -0.28,2.2 -0.34,3.26 0.07,5.72 0.4,2.45 1.59,7.15 2.56,8.68 l 3.97,3.94 c 1.87,-1.88 3.1,-6.25 3.19,-6.25 l -0.07,9.34 4.35,4.32 c -1.16,-2.37 -1.94,-6.58 -1.63,-10.38 0.32,-3.8 2.3,-8.59 2.06,-10.44 -1.14,-0.4 -2.9,2.58 -5.21,1.88 -0.08,-1.75 0.74,-6.02 1.9,-7.69 1.17,-1.66 4.43,-5.7 6.41,-6.28 -0.36,-0.42 -0.99,-0.59 -1.75,-0.56 z"
         style="fill:#ffffff;fill-opacity:1;fill-rule:evenodd;stroke:none;stroke-width:0.25pt;stroke-linecap:butt;stroke-linejoin:miter;stroke-opacity:1"
         id="lys_2" />
      <path
         d="m 329.36,254.28 c 9.62,-4.95 19.64,8.3 19.64,8.3 0,0 1.44,-9.25 3.32,-9.36 1.88,-0.11 4.87,7.31 4.87,7.31 0,0 5.76,-7.64 15.72,-7.58 9.97,0.05 11.57,9.13 5.87,9.57 -5.66,0.44 -2.38,-5.15 -2.27,-3.65 0.06,0.17 -5.37,-7.75 -19.15,7.86 -2.03,2.3 -3.94,-8.46 -4.93,-6.09 -1.21,2.88 -0.22,6.26 -1.11,8.53 1.39,1.71 -11.35,-13.84 -16.77,-9.58"
         transform="translate(-1.35,-0.76)"
         style="fill:#ffffff;fill-opacity:1;fill-rule:evenodd;stroke:none;stroke-width:0.25pt;stroke-linecap:butt;stroke-linejoin:miter;stroke-opacity:1"
         id="lys_3" />
      <use
         transform="matrix(0,1,1,0,74.5,-74.49)"
         xlink:href="#lys_3"
         style="fill:#ffffff;fill-opacity:1;stroke:none;stroke-opacity:1"
         id="use75414" />
      <use
         transform="matrix(0,1,1,0,74.9,-74.93)"
         xlink:href="#lys_1"
         style="fill:#ffffff;fill-opacity:1;stroke:none;stroke-opacity:1"
         id="use75416" />
      <use
         transform="matrix(0,1,1,0,74.82,-74.82)"
         xlink:href="#lys_2"
         style="fill:#ffffff;fill-opacity:1;stroke:none;stroke-opacity:1"
         id="use75418" />
    </g>
  </defs>
  <g
     id="7_spade"
     inkscape:export-filename="7_spade.svg"
     inkscape:export-xdpi="96"
     inkscape:export-ydpi="96"
     transform="translate(-1171.97,-729.11813)">
    <use
       xlink:href="#base"
       x="1005.45"
       y="729.41199"
       id="use75538" />
    <use
       xlink:href="#n_7"
       x="1009.45"
       y="530.29498"
       id="use75540" />
    <use
       xlink:href="#n_7"
       x="1169.02"
       y="699.13202"
       transform="rotate(180,1169.02,699.132)"
       id="use75542" />
    <use
       xlink:href="#spade"
       x="1019.1"
       y="544.29498"
       transform="rotate(180,1019.1,544.295)"
       id="use75544" />
    <use
       xlink:href="#spade"
       x="1159.37"
       y="685.13202"
       id="use75546" />
    <use
       xlink:href="#spade"
       x="437.21201"
       y="221.209"
       transform="matrix(-2.4,0,0,-2.4,2098.6176,1061.8032)"
       id="use75548" />
    <use
       xlink:href="#spade"
       x="437.21201"
       y="253.26801"
       transform="matrix(-2.4,0,0,-2.4,2098.6176,1215.6864)"
       id="use75550" />
    <use
       xlink:href="#spade"
       x="437.21201"
       y="289.323"
       transform="scale(2.4)"
       id="use75552" />
    <use
       xlink:href="#spade"
       x="470.48599"
       y="221.209"
       transform="matrix(-2.4,0,0,-2.4,2258.3328,1061.8032)"
       id="use75554" />
    <use
       xlink:href="#spade"
       x="470.48599"
       y="253.26801"
       transform="matrix(-2.4,0,0,-2.4,2258.3328,1215.6864)"
       id="use75556" />
    <use
       xlink:href="#spade"
       x="470.48599"
       y="289.323"
       transform="scale(2.4)"
       id="use75558" />
    <use
       xlink:href="#spade"
       x="453.849"
       y="243.774"
       transform="matrix(-2.4,0,0,-2.4,2178.4752,1170.1152)"
       id="use75560" />
  </g>
  <g
     id="8_spade"
     transform="translate(-1171.97,-729.11813)">
    <use
       xlink:href="#base"
       x="1173.02"
       y="729.41199"
       id="use75563" />
    <use
       xlink:href="#n_8"
       x="1177.02"
       y="530.29498"
       id="use75565" />
    <use
       xlink:href="#n_8"
       x="1336.6"
       y="699.13202"
       transform="rotate(180,1336.6,699.132)"
       id="use75567" />
    <use
       xlink:href="#spade"
       x="1186.67"
       y="544.29498"
       transform="rotate(180,1186.67,544.295)"
       id="use75569" />
    <use
       xlink:href="#spade"
       x="1326.95"
       y="685.13202"
       id="use75571" />
    <use
       xlink:href="#spade"
       x="507.035"
       y="221.209"
       transform="matrix(-2.4,0,0,-2.4,2433.768,1061.8032)"
       id="use75573" />
    <use
       xlink:href="#spade"
       x="507.035"
       y="243.774"
       transform="matrix(-2.4,0,0,-2.4,2433.768,1170.1152)"
       id="use75575" />
    <use
       xlink:href="#spade"
       x="507.035"
       y="266.758"
       transform="scale(2.4)"
       id="use75577" />
    <use
       xlink:href="#spade"
       x="507.035"
       y="289.323"
       transform="scale(2.4)"
       id="use75579" />
    <use
       xlink:href="#spade"
       x="540.30902"
       y="221.209"
       transform="matrix(-2.4,0,0,-2.4,2593.4832,1061.8032)"
       id="use75581" />
    <use
       xlink:href="#spade"
       x="540.30902"
       y="243.774"
       transform="matrix(-2.4,0,0,-2.4,2593.4832,1170.1152)"
       id="use75583" />
    <use
       xlink:href="#spade"
       x="540.30902"
       y="266.758"
       transform="scale(2.4)"
       id="use75585" />
    <use
       xlink:href="#spade"
       x="540.30902"
       y="289.323"
       transform="scale(2.4)"
       id="use75587" />
  </g>
  <g
     id="9_spade"
     transform="translate(-1171.97,-729.11813)">
    <use
       xlink:href="#base"
       x="1340.6"
       y="729.41199"
       id="use75590" />
    <use
       xlink:href="#n_9"
       x="1344.6"
       y="530.29498"
       id="use75592" />
    <use
       xlink:href="#n_9"
       x="1504.17"
       y="699.13202"
       transform="rotate(180,1504.17,699.132)"
       id="use75594" />
    <use
       xlink:href="#spade"
       x="1354.25"
       y="544.29498"
       transform="rotate(180,1354.25,544.295)"
       id="use75596" />
    <use
       xlink:href="#spade"
       x="1494.52"
       y="685.13202"
       id="use75598" />
    <use
       xlink:href="#spade"
       x="576.85797"
       y="221.209"
       transform="matrix(-2.4,0,0,-2.4,2768.9184,1061.8032)"
       id="use75600" />
    <use
       xlink:href="#spade"
       x="576.85797"
       y="243.774"
       transform="matrix(-2.4,0,0,-2.4,2768.9184,1170.1152)"
       id="use75602" />
    <use
       xlink:href="#spade"
       x="576.85797"
       y="266.758"
       transform="scale(2.4)"
       id="use75604" />
    <use
       xlink:href="#spade"
       x="576.85797"
       y="289.323"
       transform="scale(2.4)"
       id="use75606" />
    <use
       xlink:href="#spade"
       x="610.13202"
       y="221.209"
       transform="matrix(-2.4,0,0,-2.4,2928.6336,1061.8032)"
       id="use75608" />
    <use
       xlink:href="#spade"
       x="610.13202"
       y="243.774"
       transform="matrix(-2.4,0,0,-2.4,2928.6336,1170.1152)"
       id="use75610" />
    <use
       xlink:href="#spade"
       x="610.13202"
       y="266.758"
       transform="scale(2.4)"
       id="use75612" />
    <use
       xlink:href="#spade"
       x="610.13202"
       y="289.323"
       transform="scale(2.4)"
       id="use75614" />
    <use
       xlink:href="#spade"
       x="593.495"
       y="232.492"
       transform="matrix(-2.4,0,0,-2.4,2848.776,1115.9616)"
       id="use75616" />
  </g>
</svg>
